HIERARCHY
ROOT Pelvis
{
	OFFSET 0.000000 0.000000 0.000000
	CHANNELS 6 Xposition Yposition Zposition Xrotation Yrotation Zrotation
	JOINT LeftUpLeg_virtual
	{
		OFFSET 0.000000 0.000000 0.000000
		CHANNELS 3 Xrotation Yrotation Zrotation
		JOINT LeftUpLeg
		{
			OFFSET 18.735201 -5.666702 -4.541200
			CHANNELS 3 Xrotation Yrotation Zrotation
			JOINT LeftLeg
			{
				OFFSET -0.021200 -31.938179 0.493100
				CHANNELS 3 Xrotation Yrotation Zrotation
				JOINT LeftFoot
				{
					OFFSET 0.021200 -31.938179 -4.336299
					CHANNELS 3 Xrotation Yrotation Zrotation
					JOINT LeftToeBase
					{
						OFFSET 0.943001 -26.722000 15.023500
						CHANNELS 3 Xrotation Yrotation Zrotation
						End Site
						{
							OFFSET 0 0 0
						}
					}
				}
			}
		}
	}
	JOINT RightUpLeg_virtual
	{
		OFFSET 0.000000 0.000000 0.000000
		CHANNELS 3 Xrotation Yrotation Zrotation
		JOINT RightUpLeg
		{
			OFFSET -18.735201 -5.666702 -4.541200
			CHANNELS 3 Xrotation Yrotation Zrotation
			JOINT RightLeg
			{
				OFFSET 0.018946 -31.938133 0.493100
				CHANNELS 3 Xrotation Yrotation Zrotation
				JOINT RightFoot
				{
					OFFSET -0.018946 -31.938126 -4.336299
					CHANNELS 3 Xrotation Yrotation Zrotation
					JOINT RightToeBase
					{
						OFFSET -0.943001 -26.722004 15.023500
						CHANNELS 3 Xrotation Yrotation Zrotation
						End Site
						{
							OFFSET 0 0 0
						}
					}
				}
			}
		}
	}
	JOINT Hips_virtual
	{
		OFFSET 0.000000 0.000000 0.000000
		CHANNELS 3 Xrotation Yrotation Zrotation
		JOINT Hips
		{
			OFFSET -0.000000 -0.000000 -0.000000
			CHANNELS 3 Xrotation Yrotation Zrotation
			JOINT Spine
			{
				OFFSET 0.000000 10.199997 -0.299500
				CHANNELS 3 Xrotation Yrotation Zrotation
				JOINT Spine1
				{
					OFFSET 0.000000 11.900002 -1.516600
					CHANNELS 3 Xrotation Yrotation Zrotation
					JOINT Spine2
					{
						OFFSET 0.000000 13.600006 -2.842500
						CHANNELS 3 Xrotation Yrotation Zrotation
						JOINT Neck_virtual
						{
							OFFSET 0.000000 0.000000 0.000000
							CHANNELS 3 Xrotation Yrotation Zrotation
							JOINT Neck
							{
								OFFSET 0.000000 9.624100 -2.890100
								CHANNELS 3 Xrotation Yrotation Zrotation
								JOINT Head
								{
									OFFSET 0.000000 14.068802 -1.351900
									CHANNELS 3 Xrotation Yrotation Zrotation
									End Site
									{
										OFFSET 0 0 0
									}
								}
							}
						}
						JOINT LeftShoulder_virtual
						{
							OFFSET 0.000000 0.000000 0.000000
							CHANNELS 3 Xrotation Yrotation Zrotation
							JOINT LeftShoulder
							{
								OFFSET 15.263000 10.923401 -0.547700
								CHANNELS 3 Xrotation Yrotation Zrotation
								JOINT LeftArm
								{
									OFFSET 25.438599 -2.830597 -13.032500
									CHANNELS 3 Xrotation Yrotation Zrotation
									JOINT LeftForeArm
									{
										OFFSET 29.960503 0.000000 0.000000
										CHANNELS 3 Xrotation Yrotation Zrotation
										JOINT LeftHand
										{
											OFFSET 27.849251 0.000000 0.000000
											CHANNELS 3 Xrotation Yrotation Zrotation
											End Site
											{
												OFFSET 0 0 0
											}
										}
									}
								}
							}
						}
						JOINT RightShoulder_virtual
						{
							OFFSET 0.000000 0.000000 0.000000
							CHANNELS 3 Xrotation Yrotation Zrotation
							JOINT RightShoulder
							{
								OFFSET -15.263000 10.923401 -0.547700
								CHANNELS 3 Xrotation Yrotation Zrotation
								JOINT RightArm
								{
									OFFSET -25.438599 -2.830597 -13.032500
									CHANNELS 3 Xrotation Yrotation Zrotation
									JOINT RightForeArm
									{
										OFFSET -29.960503 0.000000 0.000000
										CHANNELS 3 Xrotation Yrotation Zrotation
										JOINT RightHand
										{
											OFFSET -27.849251 0.000000 0.000000
											CHANNELS 3 Xrotation Yrotation Zrotation
											End Site
											{
												OFFSET 0 0 0
											}
										}
									}
								}
							}
						}
					}
				}
			}
		}
	}
}
MOTION
Frames: 11
Frame Time: 0.03333333
3.062126 93.225922 3.722481 0.000000 0.000000 0.000000 4.269500 -10.311880 -1.129785 -36.494138 8.242694 15.422594 53.850676 -0.590549 -1.875926 2.144020 -0.337192 -8.573417 0.000000 0.000000 0.000000 5.245712 3.958810 5.515366 -22.350906 -5.005044 -8.185515 29.697823 2.389312 -5.138955 -18.765282 1.046729 3.876424 0.000000 0.000000 0.000000 0.528729 -0.991126 0.262513 2.626141 9.177238 -1.291600 7.597469 -1.734259 1.194458 2.834090 -0.390994 0.665851 0.000000 0.000000 0.000000 3.069695 -0.389348 0.430080 -0.638770 -0.169540 0.146491 0.000000 0.000000 0.000000 2.543646 -1.149247 -1.096216 0.083283 -12.083770 -11.532676 5.061819 -4.070454 -49.897107 5.027593 -31.431977 -2.378529 0.000000 0.000000 0.000000 3.549645 -0.538547 1.867432 1.555742 2.292808 13.529957 3.387580 10.904706 44.438218 5.742870 51.586397 -1.206592 0.000000 0.000000 0.000000 
3.250884 93.227303 4.019172 0.000000 0.000000 0.000000 4.256077 -10.159357 -1.004829 -36.496925 8.221881 15.559670 53.698380 -0.465044 -1.906608 2.049895 -0.185696 -8.532289 0.000000 0.000000 0.000000 5.337927 4.030668 5.506378 -22.198098 -4.995449 -8.170048 29.608542 2.474852 -5.150879 -18.877159 1.126459 3.906686 0.000000 0.000000 0.000000 0.557316 -0.816249 0.240185 2.531777 9.157293 -1.260407 7.639040 -1.544203 1.133707 2.860360 -0.262913 0.651835 0.000000 0.000000 0.000000 3.136910 -0.297279 0.393093 -0.623464 -0.130762 0.138247 0.000000 0.000000 0.000000 2.555105 -1.059284 -1.142543 0.088658 -11.939707 -11.645093 5.020723 -3.815707 -49.949054 4.971010 -31.261434 -2.412559 0.000000 0.000000 0.000000 3.542460 -0.405730 1.824349 1.526328 2.494011 13.497374 3.472493 11.215842 44.281062 5.865979 52.021525 -1.319903 0.000000 0.000000 0.000000 
3.617543 93.226112 4.591288 0.000000 0.000000 0.000000 4.227469 -9.873499 -0.772113 -36.501255 8.182073 15.813563 53.390998 -0.224924 -1.971517 1.853494 0.108176 -8.463337 0.000000 0.000000 0.000000 5.512168 4.152989 5.477223 -21.911718 -4.978160 -8.155289 29.444918 2.641831 -5.160659 -19.085251 1.274662 3.989435 0.000000 0.000000 0.000000 0.612039 -0.488693 0.197557 2.359117 9.101734 -1.205345 7.709978 -1.167234 1.023554 2.912503 -0.016801 0.623146 0.000000 0.000000 0.000000 3.263749 -0.117974 0.322582 -0.594687 -0.057464 0.123429 0.000000 0.000000 0.000000 2.578736 -0.881893 -1.230966 0.099164 -11.654116 -11.846430 4.918970 -3.317730 -50.046411 4.845547 -30.960223 -2.478651 0.000000 0.000000 0.000000 3.533790 -0.148283 1.741247 1.466453 2.886556 13.433277 3.605462 11.802562 43.993221 6.095094 52.831482 -1.528653 0.000000 0.000000 0.000000 
4.141096 93.214958 5.398839 0.000000 0.000000 0.000000 4.183656 -9.488470 -0.459436 -36.502850 8.126345 16.151307 52.926945 0.107930 -2.075724 1.543164 0.524650 -8.390392 0.000000 0.000000 0.000000 5.751493 4.288463 5.409695 -21.524183 -4.957105 -8.168357 29.233729 2.883348 -5.146490 -19.361848 1.473598 4.158646 0.000000 0.000000 0.000000 0.690481 -0.044512 0.138514 2.134334 8.984291 -1.142554 7.791903 -0.610986 0.883728 2.988280 0.329663 0.579819 0.000000 0.000000 0.000000 3.436631 0.139509 0.224683 -0.556188 0.042953 0.104957 0.000000 0.000000 0.000000 2.614837 -0.621986 -1.354366 0.114002 -11.233742 -12.099990 4.729391 -2.596769 -50.176718 4.633939 -30.589245 -2.571788 0.000000 0.000000 0.000000 3.532819 0.219293 1.623672 1.374767 3.451774 13.342176 3.724885 12.601079 43.621112 6.397116 53.911510 -1.799748 0.000000 0.000000 0.000000 
4.792710 93.183556 6.389108 0.000000 0.000000 0.000000 4.130962 -9.047375 -0.095517 -36.492003 8.057987 16.538352 52.311797 0.501208 -2.222957 1.111112 1.031889 -8.343132 0.000000 0.000000 0.000000 6.037686 4.394004 5.285018 -21.071125 -4.937888 -8.238788 29.007964 3.191471 -5.088031 -19.673265 1.705784 4.444884 0.000000 0.000000 0.000000 0.793348 0.479186 0.068269 1.883937 8.774877 -1.096703 7.869046 0.110935 0.737336 3.082251 0.755259 0.524217 0.000000 0.000000 0.000000 3.638980 0.463248 0.106922 -0.513409 0.161875 0.086305 0.000000 0.000000 0.000000 2.662569 -0.286458 -1.504620 0.131679 -10.690977 -12.370014 4.432972 -1.679538 -50.322768 4.324100 -30.205757 -2.682793 0.000000 0.000000 0.000000 3.548975 0.679256 1.478720 1.250603 4.165128 13.234515 3.762668 13.532046 43.219337 6.726077 55.137645 -2.090206 0.000000 0.000000 0.000000 
5.540464 93.119484 7.506394 0.000000 0.000000 0.000000 4.084305 -8.597041 0.297734 -36.452747 7.979404 16.947613 51.563454 0.914231 -2.413509 0.560338 1.586738 -8.352013 0.000000 0.000000 0.000000 6.356459 4.433095 5.089969 -20.581324 -4.926510 -8.389795 28.799435 3.558253 -4.974010 -19.986979 1.958977 4.862709 0.000000 0.000000 0.000000 0.925503 1.055703 -0.007719 1.624790 8.444045 -1.095887 7.935094 0.978894 0.605350 3.186218 1.239567 0.461664 0.000000 0.000000 0.000000 3.854925 0.840556 -0.023119 -0.472635 0.291605 0.070762 0.000000 0.000000 0.000000 2.720935 0.116403 -1.674129 0.150510 -10.043749 -12.631689 4.028423 -0.600499 -50.465546 3.916642 -29.848514 -2.798489 0.000000 0.000000 0.000000 3.589218 1.213823 1.313997 1.094846 5.001079 13.126871 3.660926 14.515404 42.836778 7.029366 56.392412 -2.355040 0.000000 0.000000 0.000000 
6.355139 93.009338 8.703207 0.000000 0.000000 0.000000 4.065262 -8.183505 0.707702 -36.365034 7.891671 17.362862 50.714653 1.301789 -2.644076 -0.091154 2.138719 -8.444510 0.000000 0.000000 0.000000 6.700339 4.386523 4.820383 -20.070412 -4.927395 -8.632336 28.631654 3.975305 -4.805332 -20.277732 2.227180 5.405232 0.000000 0.000000 0.000000 1.093703 1.672592 -0.085174 1.358047 7.965518 -1.162623 7.995039 1.969159 0.502404 3.291876 1.765970 0.399424 0.000000 0.000000 0.000000 4.072751 1.260111 -0.158868 -0.439493 0.426918 0.060891 0.000000 0.000000 0.000000 2.790891 0.577590 -1.856525 0.169536 -9.313752 -12.872695 3.531773 0.594806 -50.588575 3.426348 -29.538458 -2.903721 0.000000 0.000000 0.000000 3.657087 1.807489 1.136632 0.910357 5.938181 13.038858 3.382008 15.483774 42.503598 7.256902 57.582108 -2.556629 0.000000 0.000000 0.000000 
7.214504 92.840782 9.949280 0.000000 0.000000 0.000000 4.096538 -7.846957 1.128467 -36.210111 7.795173 17.776575 49.812771 1.618963 -2.909519 -0.809652 2.636307 -8.643616 0.000000 0.000000 0.000000 7.068318 4.257774 4.481319 -19.540413 -4.941633 -8.963593 28.515183 4.432228 -4.593703 -20.530956 2.508172 6.045756 0.000000 0.000000 0.000000 1.302581 2.326277 -0.162269 1.069036 7.318701 -1.305540 8.061993 3.057180 0.435071 3.394316 2.322476 0.344499 0.000000 0.000000 0.000000 4.286955 1.713241 -0.295450 -0.417433 0.565457 0.058272 0.000000 0.000000 0.000000 2.876596 1.087975 -2.046752 0.189085 -8.524237 -13.088010 2.968793 1.848969 -50.682599 2.878008 -29.288169 -2.984808 0.000000 0.000000 0.000000 3.753506 2.447895 0.952460 0.701868 6.962048 12.988326 2.912178 16.391692 42.222945 7.371669 58.642379 -2.673620 0.000000 0.000000 0.000000 
8.103752 92.605240 11.234539 0.000000 0.000000 0.000000 4.195201 -7.615414 1.556113 -35.977205 7.690982 18.185450 48.917337 1.825837 -3.205255 -1.548353 3.033535 -8.967892 0.000000 0.000000 0.000000 7.462958 4.070625 4.084789 -18.984557 -4.966575 -9.369436 28.447526 4.915065 -4.357746 -20.742426 2.799925 6.743707 0.000000 0.000000 0.000000 1.551905 3.011346 -0.240166 0.732610 6.492170 -1.516319 8.151150 4.220634 0.402809 3.493953 2.900741 0.301291 0.000000 0.000000 0.000000 4.498174 2.193657 -0.430006 -0.406920 0.706883 0.063505 0.000000 0.000000 0.000000 2.984466 1.638658 -2.240980 0.210511 -7.697787 -13.273049 2.366504 3.097908 -50.748446 2.299565 -29.109597 -3.033068 0.000000 0.000000 0.000000 3.878415 3.125384 0.765516 0.475091 8.064852 12.987244 2.261487 17.218038 41.969532 7.358305 59.534531 -2.706350 0.000000 0.000000 0.000000 
9.012403 92.300278 12.565622 0.000000 0.000000 0.000000 4.367376 -7.499516 1.985225 -35.668887 7.581868 18.586828 48.094736 1.891031 -3.528546 -2.253255 3.294720 -9.431310 0.000000 0.000000 0.000000 7.886672 3.860502 3.646668 -18.394423 -4.996969 -9.828903 28.417398 5.406344 -4.118660 -20.915091 3.098445 7.452319 0.000000 0.000000 0.000000 1.837602 3.712960 -0.322374 0.320596 5.485149 -1.773272 8.273837 5.440968 0.400436 3.595735 3.494395 0.270283 0.000000 0.000000 0.000000 4.711204 2.695898 -0.561656 -0.405793 0.851316 0.076295 0.000000 0.000000 0.000000 3.120415 2.221142 -2.436566 0.235370 -6.853969 -13.419957 1.747756 4.281207 -50.795789 1.715872 -29.014073 -3.046781 0.000000 0.000000 0.000000 4.031896 3.831768 0.578130 0.235227 9.241977 13.040131 1.461490 17.961417 41.696406 7.226061 60.237187 -2.676107 0.000000 0.000000 0.000000 
9.930100 91.930893 13.957526 0.000000 0.000000 0.000000 4.606487 -7.491804 2.407845 -35.302335 7.472213 18.977092 47.409699 1.793851 -3.877465 -2.871670 3.396459 -10.041080 0.000000 0.000000 0.000000 8.338902 3.663424 3.184021 -17.766154 -5.027033 -10.318873 28.410561 5.887356 -3.896754 -21.055489 3.398072 8.126145 0.000000 0.000000 0.000000 2.155233 4.407130 -0.413115 -0.192173 4.304340 -2.050278 8.433469 6.702898 0.420819 3.706145 4.098024 0.248234 0.000000 0.000000 0.000000 4.931889 3.213544 -0.691026 -0.410520 0.997934 0.095600 0.000000 0.000000 0.000000 3.286993 2.827494 -2.631957 0.264867 -6.006367 -13.518316 1.129300 5.352932 -50.838095 1.145208 -29.007445 -3.030549 0.000000 0.000000 0.000000 4.213986 4.559106 0.391617 -0.014799 10.487831 13.145284 0.559597 18.630587 41.348285 7.003857 60.738195 -2.617366 0.000000 0.000000 0.000000 
